<svg width="76" height="76" viewBox="0 0 76 76" fill="none" xmlns="http://www.w3.org/2000/svg">
<path d="M11.875 14.25V46.4621L6.45763 51.9579C5.37279 53.0387 4.75901 54.5044 4.75 56.0358C4.75749 57.549 5.36193 58.998 6.43194 60.0681C7.50195 61.1381 8.95105 61.7425 10.4643 61.75H65.5358C67.049 61.7425 68.498 61.1381 69.5681 60.0681C70.6381 58.998 71.2425 57.549 71.25 56.0358C71.2407 54.5031 70.6271 53.036 69.5424 51.9531L64.125 46.4598V14.25H11.875ZM16.625 19H59.375V45.125H16.625V19ZM38 21.375L34.4375 42.75H38L41.5625 21.375H38ZM28.7043 26.125L24.6216 31.0365L23.75 32.0625L24.6216 33.0885L28.7043 38L31.2835 35.9504L28.0488 32.0625L31.2787 28.1746L28.7043 26.125ZM47.2957 26.125L44.7165 28.1746L47.9513 32.0625L44.7212 35.9504L47.2981 38L51.3808 33.0885L52.25 32.0625L51.3784 31.0365L47.2957 26.125ZM15.2879 49.875H60.7098L66.2031 55.2924C66.3918 55.4942 66.4977 55.7595 66.5 56.0358C66.5068 56.1642 66.4866 56.2926 66.4406 56.4127C66.3945 56.5328 66.3237 56.6418 66.2328 56.7328C66.1418 56.8237 66.0328 56.8945 65.9127 56.9406C65.7926 56.9866 65.6642 57.0068 65.5358 57H10.4643C10.3358 57.0068 10.2074 56.9866 10.0873 56.9406C9.96721 56.8945 9.85815 56.8237 9.76721 56.7328C9.67627 56.6418 9.60548 56.5328 9.55944 56.4127C9.51341 56.2926 9.49315 56.1642 9.5 56.0358C9.5 55.7745 9.61163 55.48 9.79688 55.2924L15.2879 49.875Z" fill="#000AFF"/>
</svg>
